<svg id="visual" viewBox="0 0 960 540" width="960" height="540" xmlns="http://www.w3.org/2000/svg" xmlns:xlink="http://www.w3.org/1999/xlink" version="1.1"><path d="M0 71L87 114L175 136L262 125L349 87L436 131L524 82L611 136L698 55L785 136L873 109L960 71L960 0L873 0L785 0L698 0L611 0L524 0L436 0L349 0L262 0L175 0L87 0L0 0Z" fill="#62bbc1"></path><path d="M0 287L87 260L175 228L262 260L349 271L436 217L524 330L611 276L698 222L785 233L873 244L960 271L960 69L873 107L785 134L698 53L611 134L524 80L436 129L349 85L262 123L175 134L87 112L0 69Z" fill="#5a9790"></path><path d="M0 347L87 298L175 303L262 336L349 325L436 298L524 379L611 352L698 276L785 314L873 309L960 347L960 269L873 242L785 231L698 220L611 274L524 328L436 215L349 269L262 258L175 226L87 258L0 285Z" fill="#517467"></path><path d="M0 503L87 455L175 476L262 433L349 433L436 492L524 492L611 471L698 460L785 503L873 498L960 460L960 345L873 307L785 312L698 274L611 350L524 377L436 296L349 323L262 334L175 301L87 296L0 345Z" fill="#435247"></path><path d="M0 541L87 541L175 541L262 541L349 541L436 541L524 541L611 541L698 541L785 541L873 541L960 541L960 458L873 496L785 501L698 458L611 469L524 490L436 490L349 431L262 431L175 474L87 453L0 501Z" fill="#30332e"></path></svg>