<svg id="visual" viewBox="0 0 900 600" width="900" height="600" xmlns="http://www.w3.org/2000/svg" xmlns:xlink="http://www.w3.org/1999/xlink" version="1.1"><path d="M0 49L82 103L164 73L245 97L327 103L409 103L491 61L573 37L655 43L736 85L818 49L900 67L900 0L818 0L736 0L655 0L573 0L491 0L409 0L327 0L245 0L164 0L82 0L0 0Z" fill="#1ef7b6"></path><path d="M0 115L82 169L164 169L245 199L327 211L409 163L491 127L573 199L655 223L736 175L818 103L900 211L900 65L818 47L736 83L655 41L573 35L491 59L409 101L327 101L245 95L164 71L82 101L0 47Z" fill="#00b593"></path><path d="M0 265L82 427L164 379L245 355L327 385L409 367L491 349L573 427L655 349L736 253L818 301L900 325L900 209L818 101L736 173L655 221L573 197L491 125L409 161L327 209L245 197L164 167L82 167L0 113Z" fill="#007669"></path><path d="M0 385L82 499L164 481L245 433L327 445L409 469L491 463L573 487L655 397L736 373L818 403L900 439L900 323L818 299L736 251L655 347L573 425L491 347L409 365L327 383L245 353L164 377L82 425L0 263Z" fill="#0f3c3a"></path><path d="M0 601L82 601L164 601L245 601L327 601L409 601L491 601L573 601L655 601L736 601L818 601L900 601L900 437L818 401L736 371L655 395L573 485L491 461L409 467L327 443L245 431L164 479L82 497L0 383Z" fill="#010303"></path></svg>